<svg width="14" height="10" viewBox="0 0 14 10" fill="none" xmlns="http://www.w3.org/2000/svg">
<path fill-rule="evenodd" clip-rule="evenodd" d="M14.0009 5.0858C14.0009 4.95242 13.9482 4.8245 13.8544 4.73018C13.7607 4.63587 13.6335 4.58288 13.5009 4.58288H1.70789L4.85489 1.41857C4.90138 1.37181 4.93826 1.3163 4.96342 1.25521C4.98858 1.19411 5.00153 1.12863 5.00153 1.06251C5.00153 0.99638 4.98858 0.930901 4.96342 0.869808C4.93826 0.808714 4.90138 0.753204 4.85489 0.706445C4.80841 0.659687 4.75322 0.622596 4.69248 0.59729C4.63174 0.571985 4.56664 0.55896 4.50089 0.55896C4.43515 0.55896 4.37005 0.571985 4.30931 0.59729C4.24857 0.622596 4.19338 0.659687 4.14689 0.706445L0.146894 4.72973C0.100331 4.77645 0.0633877 4.83195 0.0381812 4.89305C0.0129748 4.95415 0 5.01965 0 5.0858C0 5.15195 0.0129748 5.21745 0.0381812 5.27854C0.0633877 5.33964 0.100331 5.39514 0.146894 5.44186L4.14689 9.46515C4.19338 9.51191 4.24857 9.549 4.30931 9.5743C4.37005 9.59961 4.43515 9.61263 4.50089 9.61263C4.56664 9.61263 4.63174 9.59961 4.69248 9.5743C4.75322 9.549 4.80841 9.51191 4.85489 9.46515C4.90138 9.41839 4.93826 9.36288 4.96342 9.30178C4.98858 9.24069 5.00153 9.17521 5.00153 9.10909C5.00153 9.04296 4.98858 8.97748 4.96342 8.91639C4.93826 8.85529 4.90138 8.79978 4.85489 8.75302L1.70789 5.58871H13.5009C13.6335 5.58871 13.7607 5.53572 13.8544 5.44141C13.9482 5.34709 14.0009 5.21918 14.0009 5.0858Z" fill="#A9A9A9"/>
</svg>
