<svg width="49" height="49" viewBox="0 0 49 49" fill="none" xmlns="http://www.w3.org/2000/svg">
<g id="blood-test 1">
<path id="Vector" d="M28.0087 11.5976C28.0087 11.3308 27.9562 11.0667 27.8541 10.8203C27.752 10.5738 27.6024 10.3499 27.4138 10.1613C27.2252 9.97271 27.0012 9.8231 26.7548 9.72102C26.5084 9.61894 26.2443 9.56641 25.9775 9.56641H16.2817C15.7496 9.56967 15.24 9.78196 14.8629 10.1575C14.4859 10.533 14.2715 11.0417 14.2661 11.5738C14.2607 12.106 14.4646 12.6189 14.8339 13.0021C15.2032 13.3852 15.7084 13.6078 16.2403 13.622V34.1747C16.2393 35.1618 16.5373 36.126 17.095 36.9403C17.6528 37.7547 18.4442 38.3809 19.3649 38.7366C20.2856 39.0924 21.2925 39.1608 22.2528 38.933C23.2132 38.7051 24.0821 38.1917 24.7449 37.4603C25.4923 38.206 26.4389 38.7204 27.4712 38.942C27.8571 39.0223 28.2502 39.0629 28.6444 39.0631C29.3734 39.0647 30.0956 38.9224 30.7696 38.6445C31.4435 38.3665 32.0561 37.9584 32.5721 37.4434C33.0881 36.9283 33.4974 36.3166 33.7766 35.6431C34.0558 34.9697 34.1994 34.2478 34.1992 33.5188C34.1697 32.3968 33.8281 31.3052 33.2126 30.3667L29.2327 22.9699C29.1775 22.8636 29.0938 22.7749 28.9909 22.7136C28.888 22.6524 28.7701 22.6212 28.6504 22.6234C28.531 22.6239 28.414 22.6569 28.3119 22.7187C28.2098 22.7806 28.1264 22.8691 28.0708 22.9747L26.02 26.864V13.6239C26.5505 13.6127 27.0555 13.3945 27.4272 13.0159C27.7988 12.6372 28.0075 12.1281 28.0087 11.5976V11.5976ZM21.1302 37.7481C20.1828 37.747 19.2745 37.3702 18.6047 36.7003C17.9348 36.0304 17.5579 35.1221 17.5568 34.1747V13.6272H24.7035V29.3609C24.7035 29.3609 23.9772 30.7684 23.8418 31.0607V20.0397C23.8418 19.8651 23.7724 19.6977 23.649 19.5743C23.5255 19.4508 23.3581 19.3815 23.1835 19.3815H19.0772C18.9907 19.3814 18.9051 19.3984 18.8252 19.4315C18.7454 19.4645 18.6728 19.513 18.6116 19.5741C18.5505 19.6353 18.502 19.7079 18.469 19.7877C18.4359 19.8676 18.4189 19.9532 18.4189 20.0397V33.8998C18.4179 34.4865 18.6074 35.0577 18.9589 35.5274C19.3104 35.9971 19.805 36.34 20.3682 36.5044C20.9314 36.6688 21.5327 36.6459 22.0818 36.4391C22.6308 36.2323 23.0978 35.8528 23.4126 35.3577C23.54 35.7259 23.7072 36.0791 23.9114 36.4109C23.5775 36.8278 23.1542 37.1644 22.6729 37.3958C22.1915 37.6272 21.6643 37.7476 21.1302 37.7481ZM22.5253 20.6995V33.8998C22.5283 34.0849 22.4945 34.2688 22.4258 34.4407C22.357 34.6126 22.2548 34.7691 22.1249 34.901C21.9951 35.033 21.8403 35.1379 21.6695 35.2094C21.4988 35.281 21.3155 35.3178 21.1304 35.3178C20.9452 35.3178 20.7619 35.281 20.5912 35.2094C20.4204 35.1379 20.2656 35.033 20.1358 34.901C20.006 34.7691 19.9037 34.6126 19.835 34.4407C19.7662 34.2688 19.7324 34.0849 19.7354 33.8998V20.6995H22.5253ZM28.659 24.682L32.0605 31.0039C32.065 31.0129 32.07 31.0217 32.0755 31.0302C32.5695 31.7691 32.8489 32.6306 32.8827 33.5188C32.8837 34.1478 32.7439 34.7691 32.4735 35.3371C32.2031 35.9051 31.8091 36.4054 31.3202 36.8013C30.8245 37.2011 30.2456 37.4851 29.626 37.6324C29.0064 37.7797 28.3617 37.7867 27.739 37.6529C26.9719 37.4869 26.2666 37.1096 25.7027 36.5638C25.1388 36.018 24.7388 35.3253 24.5478 34.5641C24.2236 33.1979 24.8111 32.0345 25.4344 30.8026L28.659 24.682ZM25.9787 12.3107H16.2817C16.1844 12.3167 16.0869 12.3026 15.9952 12.2694C15.9035 12.2362 15.8196 12.1847 15.7486 12.1178C15.6776 12.051 15.621 11.9704 15.5823 11.8809C15.5436 11.7914 15.5237 11.6949 15.5237 11.5974C15.5237 11.4999 15.5436 11.4034 15.5823 11.3139C15.621 11.2244 15.6776 11.1438 15.7486 11.0769C15.8196 11.0101 15.9035 10.9585 15.9952 10.9254C16.0869 10.8922 16.1844 10.8781 16.2817 10.884H25.9787C26.076 10.8781 26.1735 10.8922 26.2652 10.9254C26.3569 10.9585 26.4408 11.0101 26.5118 11.0769C26.5828 11.1438 26.6394 11.2244 26.6781 11.3139C26.7167 11.4034 26.7367 11.4999 26.7367 11.5974C26.7367 11.6949 26.7167 11.7914 26.6781 11.8809C26.6394 11.9704 26.5828 12.051 26.5118 12.1178C26.4408 12.1847 26.3569 12.2362 26.2652 12.2694C26.1735 12.3026 26.076 12.3167 25.9787 12.3107Z" fill="#9F938B"/>
</g>
</svg>
