<svg width="49" height="49" fill="none" xmlns="http://www.w3.org/2000/svg"><g id="blood-test 1"><path id="Vector" d="M28.009 11.598a2.03 2.03 0 0 0-2.032-2.032h-9.695a2.028 2.028 0 0 0-.042 4.056v20.553a4.886 4.886 0 0 0 8.505 3.285 5.492 5.492 0 0 0 3.9 1.603 5.543 5.543 0 0 0 5.554-5.544 6.037 6.037 0 0 0-.986-3.152l-3.98-7.397a.643.643 0 0 0-.583-.347.66.66 0 0 0-.58.352l-2.05 3.889v-13.24a2.032 2.032 0 0 0 1.989-2.026Zm-6.879 26.15a3.577 3.577 0 0 1-3.573-3.573V13.627h7.146v15.734s-.726 1.407-.861 1.7V20.04a.658.658 0 0 0-.659-.659h-4.106a.656.656 0 0 0-.658.659V33.9a2.709 2.709 0 0 0 4.994 1.458c.127.368.294.721.498 1.053a3.567 3.567 0 0 1-2.78 1.337ZM22.525 20.7v13.2a1.397 1.397 0 0 1-1.934 1.31 1.393 1.393 0 0 1-.856-1.31V20.7h2.79Zm6.134 3.982 3.401 6.322.015.026c.494.74.774 1.6.808 2.489a4.215 4.215 0 0 1-3.257 4.113 4.275 4.275 0 0 1-1.887.02 4.207 4.207 0 0 1-3.191-3.088c-.324-1.366.263-2.53.886-3.761l3.225-6.121Zm-2.68-12.371h-9.697a.713.713 0 0 1-.7-.997.716.716 0 0 1 .7-.43h9.697a.715.715 0 1 1 0 1.427Z" fill="#9F938B"/></g></svg>