<svg width="28" height="28" viewBox="0 0 28 28" fill="none" xmlns="http://www.w3.org/2000/svg">
<g id="bi:bag">
<path id="Vector" d="M14 1.53125C14.9946 1.53125 15.9484 1.93457 16.6517 2.65248C17.3549 3.37039 17.75 4.34409 17.75 5.35938V6.125H10.25V5.35938C10.25 4.34409 10.6451 3.37039 11.3483 2.65248C12.0516 1.93457 13.0054 1.53125 14 1.53125V1.53125ZM19.25 6.125V5.35938C19.25 3.93798 18.6969 2.5748 17.7123 1.56972C16.7277 0.564647 15.3924 0 14 0C12.6076 0 11.2723 0.564647 10.2877 1.56972C9.30312 2.5748 8.75 3.93798 8.75 5.35938V6.125H3.5V21.4375C3.5 22.2497 3.81607 23.0287 4.37868 23.603C4.94129 24.1773 5.70435 24.5 6.5 24.5H21.5C22.2956 24.5 23.0587 24.1773 23.6213 23.603C24.1839 23.0287 24.5 22.2497 24.5 21.4375V6.125H19.25ZM5 7.65625H23V21.4375C23 21.8436 22.842 22.2331 22.5607 22.5203C22.2794 22.8074 21.8978 22.9688 21.5 22.9688H6.5C6.10218 22.9688 5.72064 22.8074 5.43934 22.5203C5.15804 22.2331 5 21.8436 5 21.4375V7.65625Z" fill="black"></path>
</g>
</svg>
