<svg width="28" height="28" fill="none" xmlns="http://www.w3.org/2000/svg"><g id="bi:bag"><path id="Vector" d="M14 1.531c.995 0 1.948.404 2.652 1.121A3.87 3.87 0 0 1 17.75 5.36v.766h-7.5v-.766a3.87 3.87 0 0 1 1.098-2.707A3.712 3.712 0 0 1 14 1.532Zm5.25 4.594v-.766a5.416 5.416 0 0 0-1.538-3.79A5.196 5.196 0 0 0 14 0a5.196 5.196 0 0 0-3.712 1.57A5.417 5.417 0 0 0 8.75 5.36v.765H3.5v15.313c0 .812.316 1.59.879 2.165A2.97 2.97 0 0 0 6.5 24.5h15a2.97 2.97 0 0 0 2.121-.897 3.095 3.095 0 0 0 .879-2.166V6.126h-5.25ZM5 7.656h18v13.782c0 .406-.158.795-.44 1.082a1.485 1.485 0 0 1-1.06.449h-15c-.398 0-.78-.162-1.06-.449A1.548 1.548 0 0 1 5 21.438V7.655Z" fill="#000"/></g></svg>