<svg width="28" height="28" fill="none" xmlns="http://www.w3.org/2000/svg"><g id="gg:menu-left-alt"><path id="Vector" d="M1.167 4.442c0-.25.16-.49.448-.666.287-.177.677-.276 1.083-.276h21.437c.406 0 .796.1 1.083.276.287.177.449.416.449.666 0 .25-.162.49-.449.666-.287.177-.677.276-1.083.276H2.698c-.406 0-.796-.1-1.083-.276-.287-.177-.448-.416-.448-.666Zm0 19.116c0-.25.16-.49.448-.666.287-.177.677-.276 1.083-.276h21.437c.406 0 .796.1 1.083.276.287.177.449.416.449.666 0 .25-.162.49-.449.666-.287.177-.677.276-1.083.276H2.698c-.406 0-.796-.1-1.083-.276-.287-.177-.448-.416-.448-.666Zm1.53-10.5c-.405 0-.795.1-1.082.276-.287.177-.448.416-.448.666 0 .25.16.49.448.666.287.177.677.276 1.083.276h12.25c.406 0 .795-.1 1.083-.276.287-.177.448-.416.448-.666 0-.25-.161-.49-.448-.666-.287-.177-.677-.276-1.083-.276H2.698Z" fill="#000"/></g></svg>