<svg width="28" height="28" viewBox="0 0 28 28" fill="none" xmlns="http://www.w3.org/2000/svg">
<g id="gg:menu-left-alt">
<path id="Vector" d="M25.6667 25.6667L19 19M12.3334 22.3333C11.0202 22.3333 9.7198 22.0747 8.50654 21.5721C7.29328 21.0696 6.19089 20.333 5.26231 19.4044C4.33372 18.4758 3.59713 17.3734 3.09458 16.1602C2.59203 14.9469 2.33337 13.6466 2.33337 12.3333C2.33337 11.0201 2.59203 9.71976 3.09458 8.5065C3.59713 7.29324 4.33372 6.19085 5.26231 5.26227C6.19089 4.33368 7.29328 3.59709 8.50654 3.09454C9.7198 2.59199 11.0202 2.33333 12.3334 2.33333C14.9855 2.33333 17.5291 3.3869 19.4044 5.26227C21.2798 7.13763 22.3334 9.68117 22.3334 12.3333C22.3334 14.9855 21.2798 17.529 19.4044 19.4044C17.5291 21.2798 14.9855 22.3333 12.3334 22.3333Z" stroke="black" stroke-width="1.5"></path>
</g>
</svg>
